<svg width="175" height="39" viewBox="0 0 175 39" fill="none" xmlns="http://www.w3.org/2000/svg">
<g clip-path="url(#clip0_2172_5527)">
<path d="M99.9357 8.81506C98.4226 9.67192 97.8427 11.0969 97.8291 12.7501C99.2471 13.593 100.76 13.8444 102.273 12.9922C103.791 12.1354 105.381 9.63466 105.925 8.17708C104.389 7.83713 101.449 7.95821 99.9357 8.81506Z" fill="#00A9E8"/>
<path d="M15.571 11.2319C9.86729 11.2319 5.5 15.4557 5.5 21.1183C5.5 26.781 9.89448 31.0048 15.5167 31.0048C18.8828 31.0048 21.5965 29.482 23.3361 27.2793V26.958L20.5952 24.611H20.2827C19.1999 25.9614 17.4874 26.8695 15.5756 26.8695C12.4632 26.8695 10.0394 24.4666 10.0394 21.123C10.0394 17.7794 12.4632 15.3765 15.5756 15.3765C17.4874 15.3765 19.1999 16.2846 20.2827 17.6351H20.5952L23.3361 15.288V14.9667C21.5648 12.7081 18.7695 11.2412 15.5756 11.2412L15.571 11.2319Z" fill="url(#paint0_linear_2172_5527)"/>
<path d="M32.7498 15.6326C31.0962 15.6326 29.7552 16.4848 28.8129 17.8911V15.9865H25.1025V30.6508H29.5242V22.7901C29.5242 20.8529 30.6659 19.507 32.4055 19.507C33.0352 19.507 33.5744 19.5676 34.118 19.861L34.4306 19.6561L35.3457 16.4894L35.1464 16.1355C34.4034 15.8142 33.6333 15.6372 32.7498 15.6372V15.6326Z" fill="url(#paint1_linear_2172_5527)"/>
<path d="M43.1699 15.6326C38.6894 15.6326 35.5498 18.8877 35.5498 23.3443C35.5498 27.8008 38.9431 31.0001 43.4236 31.0001C45.6209 31.0001 48.2439 30.2689 49.8432 28.3317V27.9778L47.8725 26.0405H47.5599C46.5904 27.0976 45.0772 27.6565 43.623 27.6565C41.6522 27.6565 40.0258 26.5435 39.8265 24.3129H50.414C50.4729 23.959 50.5001 23.5817 50.5001 23.1394C50.5001 20.9087 49.7299 19.032 48.4161 17.6862C47.1023 16.3963 45.2765 15.6326 43.1654 15.6326H43.1699ZM39.8582 21.733C40.0847 19.9727 41.2853 18.8318 43.0521 18.8318C43.9627 18.8318 44.7646 19.1531 45.3354 19.7725C45.793 20.2428 46.1056 20.946 46.2189 21.7377H39.8537L39.8582 21.733Z" fill="url(#paint2_linear_2172_5527)"/>
<path d="M62.6875 11.1154V16.8619C61.573 16.0981 60.2637 15.6325 58.7778 15.6325C54.6098 15.6325 51.6152 19.004 51.6152 23.3162C51.6152 27.6284 54.6098 30.9999 58.7778 30.9999C60.6896 30.9999 62.2299 30.2083 63.3716 29.0068V30.6507H67.082V10.8499L66.7377 10.645L62.6875 11.1154ZM59.4619 27.1301C57.3779 27.1301 55.978 25.4583 55.978 23.3162C55.978 21.1741 57.3779 19.5023 59.4619 19.5023C61.4009 19.5023 62.914 20.9412 62.914 23.3162C62.914 25.6912 61.4009 27.1301 59.4619 27.1301Z" fill="url(#paint3_linear_2172_5527)"/>
<path d="M72.2775 13.6673C73.7907 13.6673 75.0139 12.4053 75.0139 10.8826C75.0139 9.35978 73.7861 8.06519 72.2775 8.06519C70.7689 8.06519 69.5684 9.32718 69.5684 10.8826C69.5684 12.4379 70.7644 13.6673 72.2775 13.6673Z" fill="url(#paint4_linear_2172_5527)"/>
<path d="M74.4755 15.9863H70.0811V30.6506H74.4755V15.9863Z" fill="url(#paint5_linear_2172_5527)"/>
<path d="M77.0117 21.1183C77.0117 15.4603 81.2612 11.2319 86.598 11.2319C89.7919 11.2319 92.5056 12.7268 94.2453 15.0459V15.2228L92.9043 16.2799H92.7322C91.364 14.3427 89.1667 13.1692 86.6524 13.1692C82.3983 13.1692 79.0912 16.4848 79.0912 21.1183C79.0912 25.7519 82.3983 29.0675 86.6524 29.0675C89.1622 29.0675 91.3595 27.894 92.7322 25.9568H92.9043L94.2453 27.0139V27.1908C92.5056 29.5099 89.7965 31.0048 86.598 31.0048C81.2612 31.0048 77.0117 26.781 77.0117 21.1183Z" fill="#00A1DE"/>
<path d="M107.918 21.6166V30.6508H105.979V28.6856C104.783 30.1246 102.953 31.0047 101.041 31.0047C97.7338 31.0047 95.5049 29.1001 95.5049 26.2221C95.5049 23.3442 97.9286 21.3232 101.553 21.3232C103.324 21.3232 104.779 21.8215 105.975 22.4362V21.1742C105.975 18.9761 104.348 17.5092 101.924 17.5092C100.357 17.5092 98.6127 18.1519 97.4439 19.1531H97.2717L96.3883 17.8352V17.6583C97.7565 16.4289 99.9537 15.6372 101.924 15.6372C105.834 15.6372 107.918 17.8352 107.918 21.6212V21.6166ZM105.979 25.2535V24.3454C105.037 23.8472 103.383 23.144 101.585 23.144C99.1609 23.144 97.5617 24.406 97.5617 26.2827C97.5617 27.9824 99.0159 29.128 101.213 29.128C103.555 29.128 105.979 27.6611 105.979 25.2582V25.2535Z" fill="#00A1DE"/>
<path d="M111.715 10.9105L113.568 10.645L113.713 10.7614V30.646H111.715V10.9105Z" fill="#00A1DE"/>
<path d="M117.106 11.6743C117.106 10.7337 117.849 9.97461 118.76 9.97461C119.671 9.97461 120.414 10.7383 120.414 11.6743C120.414 12.6104 119.671 13.3741 118.76 13.3741C117.849 13.3741 117.106 12.6104 117.106 11.6743ZM117.763 15.9866H119.761V30.6509H117.763V15.9866Z" fill="#00A1DE"/>
<path d="M137.139 10.7661V30.6507H135.141V28.6576C133.913 30.0639 132.115 31.0046 129.89 31.0046C125.609 31.0046 122.669 27.5725 122.669 23.3209C122.669 19.0692 125.609 15.6371 129.89 15.6371C132.06 15.6371 133.854 16.5173 135.141 17.9236V10.9105L136.994 10.645L137.139 10.7614V10.7661ZM135.368 23.3162C135.368 19.4138 132.912 17.5092 130.09 17.5092C126.778 17.5092 124.726 20.1496 124.726 23.3162C124.726 26.4828 126.778 29.1233 130.09 29.1233C132.944 29.1233 135.368 27.186 135.368 23.3162Z" fill="#00A1DE"/>
<path d="M154.459 10.7661V30.6507H152.461V28.6576C151.234 30.0639 149.435 31.0046 147.211 31.0046C142.929 31.0046 139.989 27.5725 139.989 23.3209C139.989 19.0692 142.929 15.6371 147.211 15.6371C149.381 15.6371 151.179 16.5173 152.461 17.9236V10.9105L154.314 10.645L154.459 10.7614V10.7661ZM152.692 23.3162C152.692 19.4138 150.237 17.5092 147.415 17.5092C144.107 17.5092 142.051 20.1496 142.051 23.3162C142.051 26.4828 144.103 29.1233 147.415 29.1233C150.269 29.1233 152.692 27.186 152.692 23.3162Z" fill="#00A1DE"/>
<path d="M169.5 21.6166V30.6508H167.561V28.6856C166.365 30.1246 164.535 31.0047 162.623 31.0047C159.316 31.0047 157.087 29.1001 157.087 26.2221C157.087 23.3442 159.511 21.3232 163.135 21.3232C164.906 21.3232 166.361 21.8215 167.557 22.4362V21.1742C167.557 18.9761 165.93 17.5092 163.506 17.5092C161.939 17.5092 160.195 18.1519 159.026 19.1531H158.854L157.97 17.8352V17.6583C159.339 16.4289 161.536 15.6372 163.506 15.6372C167.416 15.6372 169.5 17.8352 169.5 21.6212V21.6166ZM167.561 25.2535V24.3454C166.619 23.8472 164.965 23.144 163.167 23.144C160.743 23.144 159.144 24.406 159.144 26.2827C159.144 27.9824 160.598 29.128 162.795 29.128C165.137 29.128 167.561 27.6611 167.561 25.2582V25.2535Z" fill="#00A1DE"/>
</g>
<defs>
<linearGradient id="paint0_linear_2172_5527" x1="-7.01746" y1="27.4516" x2="79.3729" y2="4.46512" gradientUnits="userSpaceOnUse">
<stop stop-color="#00A34B"/>
<stop offset="1" stop-color="#00A1DE"/>
</linearGradient>
<linearGradient id="paint1_linear_2172_5527" x1="-5.65425" y1="32.5834" x2="80.7359" y2="9.60133" gradientUnits="userSpaceOnUse">
<stop stop-color="#00A34B"/>
<stop offset="1" stop-color="#00A1DE"/>
</linearGradient>
<linearGradient id="paint2_linear_2172_5527" x1="-4.53506" y1="36.7885" x2="81.8551" y2="13.8064" gradientUnits="userSpaceOnUse">
<stop stop-color="#00A34B"/>
<stop offset="1" stop-color="#00A1DE"/>
</linearGradient>
<linearGradient id="paint3_linear_2172_5527" x1="-3.64188" y1="40.1459" x2="82.7484" y2="17.1594" gradientUnits="userSpaceOnUse">
<stop stop-color="#00A34B"/>
<stop offset="1" stop-color="#00A1DE"/>
</linearGradient>
<linearGradient id="paint4_linear_2172_5527" x1="-5.6089" y1="32.7603" x2="80.786" y2="9.77376" gradientUnits="userSpaceOnUse">
<stop stop-color="#00A34B"/>
<stop offset="1" stop-color="#00A1DE"/>
</linearGradient>
<linearGradient id="paint5_linear_2172_5527" x1="-2.5229" y1="44.3417" x2="83.8673" y2="21.3596" gradientUnits="userSpaceOnUse">
<stop stop-color="#00A34B"/>
<stop offset="1" stop-color="#00A1DE"/>
</linearGradient>
<clipPath id="clip0_2172_5527">
<rect width="164" height="23" fill="white" transform="translate(5.5 8)"/>
</clipPath>
</defs>
</svg>
